<mxfile host="app.diagrams.net" modified="2022-11-09T19:39:29.079Z" agent="5.0 (Windows NT 10.0; Win64; x64) AppleWebKit/537.36 (KHTML, like Gecko) Chrome/107.0.0.0 Safari/537.36 Edg/107.0.1418.35" etag="NG2ogmUzUteVmaGBlvSt" version="20.5.3" type="github">
  <diagram id="yAaoYRoATCOMvby7Zcdn" name="Page-1">
    <mxGraphModel dx="1614" dy="800" grid="1" gridSize="10" guides="1" tooltips="1" connect="1" arrows="1" fold="1" page="1" pageScale="1" pageWidth="850" pageHeight="1100" math="0" shadow="0">
      <root>
        <mxCell id="0" />
        <mxCell id="1" parent="0" />
        <mxCell id="nPQWGEedgnxupQ0x-4bL-1" value="User" style="shape=umlActor;verticalLabelPosition=bottom;verticalAlign=top;html=1;outlineConnect=0;" vertex="1" parent="1">
          <mxGeometry x="410" y="140" width="30" height="60" as="geometry" />
        </mxCell>
        <mxCell id="nPQWGEedgnxupQ0x-4bL-2" value="Xem đơn đặt phòng" style="ellipse;whiteSpace=wrap;html=1;" vertex="1" parent="1">
          <mxGeometry x="355" y="330" width="140" height="70" as="geometry" />
        </mxCell>
        <mxCell id="nPQWGEedgnxupQ0x-4bL-3" value="" style="endArrow=classic;html=1;rounded=0;exitX=0.5;exitY=0.5;exitDx=0;exitDy=0;exitPerimeter=0;entryX=0.5;entryY=0;entryDx=0;entryDy=0;" edge="1" parent="1" source="nPQWGEedgnxupQ0x-4bL-1" target="nPQWGEedgnxupQ0x-4bL-2">
          <mxGeometry width="50" height="50" relative="1" as="geometry">
            <mxPoint x="400" y="440" as="sourcePoint" />
            <mxPoint x="450" y="390" as="targetPoint" />
          </mxGeometry>
        </mxCell>
        <mxCell id="nPQWGEedgnxupQ0x-4bL-5" value="&amp;lt;&amp;lt;extend&amp;gt;&amp;gt;" style="html=1;verticalAlign=bottom;labelBackgroundColor=none;endArrow=open;endFill=0;dashed=1;rounded=0;exitX=0;exitY=1;exitDx=0;exitDy=0;" edge="1" parent="1" source="nPQWGEedgnxupQ0x-4bL-2" target="nPQWGEedgnxupQ0x-4bL-6">
          <mxGeometry width="160" relative="1" as="geometry">
            <mxPoint x="340" y="410" as="sourcePoint" />
            <mxPoint x="500" y="410" as="targetPoint" />
          </mxGeometry>
        </mxCell>
        <mxCell id="nPQWGEedgnxupQ0x-4bL-6" value="Huỷ đơn" style="ellipse;whiteSpace=wrap;html=1;" vertex="1" parent="1">
          <mxGeometry x="220" y="550" width="140" height="70" as="geometry" />
        </mxCell>
        <mxCell id="nPQWGEedgnxupQ0x-4bL-7" value="Cập nhật" style="ellipse;whiteSpace=wrap;html=1;" vertex="1" parent="1">
          <mxGeometry x="500" y="550" width="140" height="70" as="geometry" />
        </mxCell>
        <mxCell id="nPQWGEedgnxupQ0x-4bL-8" value="&amp;lt;&amp;lt;extend&amp;gt;&amp;gt;" style="html=1;verticalAlign=bottom;labelBackgroundColor=none;endArrow=open;endFill=0;dashed=1;rounded=0;exitX=1;exitY=1;exitDx=0;exitDy=0;entryX=0.5;entryY=0;entryDx=0;entryDy=0;" edge="1" parent="1" source="nPQWGEedgnxupQ0x-4bL-2" target="nPQWGEedgnxupQ0x-4bL-7">
          <mxGeometry width="160" relative="1" as="geometry">
            <mxPoint x="340" y="410" as="sourcePoint" />
            <mxPoint x="560" y="460" as="targetPoint" />
          </mxGeometry>
        </mxCell>
        <mxCell id="nPQWGEedgnxupQ0x-4bL-9" value="&amp;lt;&amp;lt;include&amp;gt;&amp;gt;" style="html=1;verticalAlign=bottom;labelBackgroundColor=none;endArrow=open;endFill=0;dashed=1;rounded=0;exitX=0;exitY=0.5;exitDx=0;exitDy=0;" edge="1" parent="1" source="nPQWGEedgnxupQ0x-4bL-2" target="nPQWGEedgnxupQ0x-4bL-10">
          <mxGeometry width="160" relative="1" as="geometry">
            <mxPoint x="340" y="410" as="sourcePoint" />
            <mxPoint x="500" y="410" as="targetPoint" />
          </mxGeometry>
        </mxCell>
        <mxCell id="nPQWGEedgnxupQ0x-4bL-10" value="Đăng kí" style="ellipse;whiteSpace=wrap;html=1;" vertex="1" parent="1">
          <mxGeometry x="90" y="290" width="140" height="70" as="geometry" />
        </mxCell>
      </root>
    </mxGraphModel>
  </diagram>
</mxfile>
